<svg id="Layer_1" data-name="Layer 1" xmlns="http://www.w3.org/2000/svg" viewBox="0 0 198.778 35.87">
	<defs>
		<style>.cls-1{fill:#fff;}.cls-2{fill:#fff; opacity:0.6;}</style>
	</defs>
	<title>A360_lockup_color</title>
	<g id="A360_lockup_color">
		<path class="cls-1" d="M61.885,24h-8.1L52.5,27.728H48.8L55.46,9.105h4.826l6.662,18.623h-3.8ZM60.837,20.96,60.1,18.81c-.813-2.361-1.652-4.7-2.282-6.873-.629,2.177-1.469,4.564-2.282,6.925l-.708,2.1Z"/>
		<path class="cls-1" d="M81.3,9.105V27.728H78.126V25.97a4.822,4.822,0,0,1-4.276,2.152c-3.41,0-5.928-2.755-5.928-7.082,0-4.355,2.544-7.083,5.955-7.083a4.807,4.807,0,0,1,4.012,1.757V9.105ZM78.02,21.04c0-2.623-1.469-4.119-3.357-4.119-1.941,0-3.279,1.574-3.279,4.119,0,2.517,1.233,4.143,3.252,4.143C76.6,25.183,78.02,23.61,78.02,21.04Z"/>
		<path class="cls-1" d="M96.253,14.324l-4.565,13.4H87.545l-4.539-13.4H86.6L87.937,18.7c.709,2.335,1.286,4.3,1.732,6.085.446-1.784,1-3.75,1.7-6.085l1.338-4.381Z"/>
		<path class="cls-1" d="M101.371,12.3h-3.41v-3.2h3.41Zm0,15.424h-3.41v-13.4h3.41Z"/>
		<path class="cls-1" d="M115.272,15.977l-1.836,2.229a5.874,5.874,0,0,0-4.013-1.574c-1.364,0-2.255.551-2.255,1.338,0,.865.865,1.024,3.121,1.522,3.673.813,5.193,1.783,5.193,4.275,0,2.57-2.1,4.38-5.744,4.38a8.786,8.786,0,0,1-6.479-2.544l1.967-2.2c1.968,1.6,3.017,1.993,4.591,1.993,1.338,0,2.334-.5,2.334-1.416,0-1.1-1.39-1.311-3.3-1.731-3.777-.839-4.931-1.784-4.931-4.171,0-2.282,1.994-4.2,5.587-4.2A8.128,8.128,0,0,1,115.272,15.977Z"/>
		<path class="cls-1" d="M131.012,21.013c0,4.249-2.885,7.134-6.951,7.134a6.733,6.733,0,0,1-6.976-7.134,6.734,6.734,0,0,1,6.976-7.135C128.127,13.878,131.012,16.764,131.012,21.013Zm-10.465,0c0,2.6,1.39,4.249,3.514,4.249,2.1,0,3.489-1.652,3.489-4.249,0-2.57-1.39-4.249-3.489-4.249C121.937,16.764,120.547,18.443,120.547,21.013Z"/>
		<path class="cls-1" d="M141.98,14.534l-.6,2.99a6.9,6.9,0,0,0-1.705-.262c-1.81,0-2.938,1.443-2.938,3.856v6.61h-3.41v-13.4H136.5v1.968a3.546,3.546,0,0,1,3.357-2.151A6.892,6.892,0,0,1,141.98,14.534Z"/>
		<path class="cls-1" d="M157.17,22.3c0,2.833-2.2,5.849-6.532,5.849a11.069,11.069,0,0,1-6.741-2.255l1.443-2.125c2.1,1.285,3.462,1.836,5.22,1.836,2.256,0,3.619-1.364,3.619-3.278,0-1.968-1.5-3.148-3.855-3.148a5.573,5.573,0,0,0-2.1.341l-1.338-1.81,6.06-5.325H144.79V9.891h11.751v2.44l-5.273,4.642C154.6,16.973,157.17,18.915,157.17,22.3Z"/>
		<path class="cls-1" d="M172.911,21.984c0,3.147-2.361,6.163-6.61,6.163-4.223,0-6.767-2.937-6.767-7.16,0-3.961,2.307-7.109,5.35-9.994l1.181-1.1H170v.053l-2.939,2.675a17.509,17.509,0,0,0-3.908,4.7,5.436,5.436,0,0,1,3.8-1.311A5.825,5.825,0,0,1,172.911,21.984Zm-2.964.052a3.394,3.394,0,0,0-3.594-3.568,3.574,3.574,0,1,0-.026,7.135A3.415,3.415,0,0,0,169.947,22.036Z"/>
		<path class="cls-1" d="M187.156,12.829a13.446,13.446,0,0,1,1.232,5.981,13.448,13.448,0,0,1-1.232,5.98,6.329,6.329,0,0,1-11.175,0,13.448,13.448,0,0,1-1.232-5.98,13.446,13.446,0,0,1,1.232-5.981,6.329,6.329,0,0,1,11.175,0ZM178.6,14.062a11.575,11.575,0,0,0-.839,4.748,11.573,11.573,0,0,0,.839,4.747,3.171,3.171,0,0,0,5.929,0,11.573,11.573,0,0,0,.839-4.747,11.575,11.575,0,0,0-.839-4.748,3.171,3.171,0,0,0-5.929,0Z"/>
		<path class="cls-1" d="M190.883,12.619a3.948,3.948,0,1,1,3.934,3.882A3.831,3.831,0,0,1,190.883,12.619Zm6.033,0a2.085,2.085,0,1,0-4.17,0,2.085,2.085,0,1,0,4.17,0Z"/>
		<path class="cls-1" d="M8.4,14.5c0,.118,0,.235.007.35,0,.053.006.1.01.158s.007.122.012.183.013.139.02.208c0,.04.008.082.013.123.011.081.023.162.036.242q0,.039.012.078.022.138.051.273l.007.039c.606,2.87,2.85,4.984,6.59,6.189l.193.06.179.055c.1.03.2.059.3.086l.07.02a22.749,22.749,0,0,0,5.477.789c6.666,0,9.466-2.617,9.837-4.856a3.474,3.474,0,0,0-.163-1.772,5.883,5.883,0,0,1,1.935,3.23l0,.016c.013.059.023.12.034.182.008.041.016.082.023.124s.015.105.022.156.014.109.02.164.01.092.014.138c.006.066.011.132.014.2,0,.038.006.075.007.114,0,.106.007.212.007.32C33.122,26.083,26.309,29,20,29c-4.57,0-10.98-.808-15.564-4.665A11.534,11.534,0,0,1,0,15.874,13.817,13.817,0,0,1,6.6,4.019,26.876,26.876,0,0,1,21.369,0,25.71,25.71,0,0,1,36.128,4.181a15.135,15.135,0,0,1,6.459,10.675l-.022-.038q-.136-.255-.287-.5c-.014-.027-.029-.052-.045-.077-.1-.167-.206-.332-.316-.5-.015-.024-.032-.048-.048-.072q-.166-.246-.346-.488l-.048-.066c-.122-.163-.247-.324-.377-.484l-.048-.056c-.132-.161-.268-.321-.409-.478L40.6,12.05q-.216-.239-.443-.471l-.035-.035c-.157-.157-.317-.312-.482-.465l-.021-.019c-.171-.156-.345-.311-.524-.461-4.866-4.093-11.578-4.951-16.35-4.951A20.657,20.657,0,0,0,13,7.962C10.031,9.614,8.4,11.937,8.4,14.5"/>
		<path class="cls-2" d="M6.682,31.69A25.71,25.71,0,0,0,21.44,35.87a26.883,26.883,0,0,0,14.773-4.018A13.821,13.821,0,0,0,42.81,20a11.541,11.541,0,0,0-4.432-8.463C33.793,7.678,27.384,6.869,22.814,6.869,16.5,6.869,9.687,9.786,9.687,14.5c0,.107,0,.215.007.321l.008.113c0,.067.008.134.014.2l.014.139c.006.054.012.108.02.162s.014.1.022.156.015.083.023.125c.01.061.021.122.034.183l0,.015a5.875,5.875,0,0,0,1.934,3.231,3.466,3.466,0,0,1-.163-1.772c.372-2.241,3.17-4.856,9.836-4.856a22.719,22.719,0,0,1,5.477.788h0l.069.02c.1.028.2.056.3.086l.179.054.194.062c3.738,1.2,5.983,3.319,6.588,6.189l.008.038c.019.089.035.181.051.273.005.025.008.051.012.078.013.079.025.161.036.243,0,.04.008.081.013.123.007.069.015.138.021.207s.007.123.011.184.007.105.009.157c.005.116.008.233.008.351,0,2.564-1.636,4.885-4.607,6.538a20.654,20.654,0,0,1-9.741,2.315c-4.773,0-11.484-.86-16.349-4.951-.18-.152-.354-.306-.525-.462l-.02-.019c-.166-.153-.326-.308-.482-.466-.012-.011-.024-.023-.035-.035q-.228-.231-.444-.471l-.043-.046c-.14-.157-.277-.316-.409-.477l-.048-.058c-.129-.158-.254-.319-.377-.483-.015-.021-.032-.042-.049-.065q-.179-.242-.346-.49c-.015-.024-.032-.048-.047-.072-.11-.163-.215-.329-.316-.5l-.046-.076q-.15-.251-.286-.5l-.021-.039A15.133,15.133,0,0,0,6.682,31.69"/>
	</g>
</svg>
